<svg id="visual" viewBox="0 0 900 600" width="900" height="600" xmlns="http://www.w3.org/2000/svg" xmlns:xlink="http://www.w3.org/1999/xlink" version="1.1"><rect x="0" y="0" width="900" height="600" fill="#FFFFFF"></rect><defs><linearGradient id="grad1_0" x1="33.3%" y1="100%" x2="100%" y2="0%"><stop offset="20%" stop-color="#4facf7" stop-opacity="1"></stop><stop offset="80%" stop-color="#4facf7" stop-opacity="1"></stop></linearGradient></defs><defs><linearGradient id="grad1_1" x1="33.3%" y1="100%" x2="100%" y2="0%"><stop offset="20%" stop-color="#4facf7" stop-opacity="1"></stop><stop offset="80%" stop-color="#b4d4fc" stop-opacity="1"></stop></linearGradient></defs><defs><linearGradient id="grad1_2" x1="33.3%" y1="100%" x2="100%" y2="0%"><stop offset="20%" stop-color="#ffffff" stop-opacity="1"></stop><stop offset="80%" stop-color="#b4d4fc" stop-opacity="1"></stop></linearGradient></defs><defs><linearGradient id="grad2_0" x1="0%" y1="100%" x2="66.7%" y2="0%"><stop offset="20%" stop-color="#4facf7" stop-opacity="1"></stop><stop offset="80%" stop-color="#4facf7" stop-opacity="1"></stop></linearGradient></defs><defs><linearGradient id="grad2_1" x1="0%" y1="100%" x2="66.7%" y2="0%"><stop offset="20%" stop-color="#b4d4fc" stop-opacity="1"></stop><stop offset="80%" stop-color="#4facf7" stop-opacity="1"></stop></linearGradient></defs><defs><linearGradient id="grad2_2" x1="0%" y1="100%" x2="66.7%" y2="0%"><stop offset="20%" stop-color="#b4d4fc" stop-opacity="1"></stop><stop offset="80%" stop-color="#ffffff" stop-opacity="1"></stop></linearGradient></defs><g transform="translate(900, 600)"><path d="M-486.7 0C-486 -69.2 -485.2 -138.5 -449.7 -186.3C-414.2 -234.1 -343.8 -260.5 -292.7 -292.7C-241.6 -325 -209.8 -363 -164.2 -396.3C-118.6 -429.6 -59.3 -458.2 0 -486.7L0 0Z" fill="#dbe9fd"></path><path d="M-324.5 0C-324 -46.2 -323.5 -92.3 -299.8 -124.2C-276.1 -156.1 -229.2 -173.7 -195.2 -195.2C-161.1 -216.7 -139.8 -242 -109.4 -264.2C-79.1 -286.4 -39.5 -305.5 0 -324.5L0 0Z" fill="#88c0f9"></path><path d="M-162.2 0C-162 -23.1 -161.7 -46.2 -149.9 -62.1C-138.1 -78 -114.6 -86.8 -97.6 -97.6C-80.5 -108.3 -69.9 -121 -54.7 -132.1C-39.5 -143.2 -19.8 -152.7 0 -162.2L0 0Z" fill="#4facf7"></path></g><g transform="translate(0, 0)"><path d="M486.7 0C477.6 61 468.4 122 448.1 185.6C427.8 249.2 396.3 315.2 344.2 344.2C292.1 373.1 219.2 364.9 158.4 382.5C97.6 400.1 48.8 443.4 0 486.7L0 0Z" fill="#dbe9fd"></path><path d="M324.5 0C318.4 40.7 312.3 81.4 298.7 123.7C285.2 166.1 264.2 210.2 229.5 229.5C194.7 248.7 146.2 243.3 105.6 255C65.1 266.7 32.5 295.6 0 324.5L0 0Z" fill="#88c0f9"></path><path d="M162.2 0C159.2 20.3 156.1 40.7 149.4 61.9C142.6 83.1 132.1 105.1 114.7 114.7C97.4 124.4 73.1 121.6 52.8 127.5C32.5 133.4 16.3 147.8 0 162.2L0 0Z" fill="#4facf7"></path></g></svg>